<svg xmlns="http://www.w3.org/2000/svg" version="1.1" xmlns:xlink="http://www.w3.org/1999/xlink" viewBox="0 0 15.901052751215207 7.123631044617291"><g transform="matrix(0.7878070796240083,0,0,0.7878070796240083,2.4428374476857355,4.0790433257500185)"><g transform="matrix(1,0,0,1,0,0)" clip-path="url(#SvgjsClipPath56408)"><g clip-path="url(#SvgjsClipPath564062d4bdaab-95e9-4e85-8e9e-827b0716b590)"><path d=" M 1.3067811504825648 -3.2589948949645824 L 5.171774336494138 -3.2589948949645824 L 5.054895171340655 -2.9897094175404764 L 2.2088617555438153 -2.9897094175404764 L 1.0189597702147346 -0.25 L 0 -0.25 L 1.3067811504825648 -3.2589948949645824 Z" fill="#fdcb68" transform="matrix(1,0,0,1,0,0)" fill-rule="evenodd"></path></g><g clip-path="url(#SvgjsClipPath564062d4bdaab-95e9-4e85-8e9e-827b0716b590)"><path d=" M 2.282747923823661 -2.2294799578527273 L 4.724853123484341 -2.2294799578527273 L 4.607716515235805 -1.9604519235236728 L 3.184828528884912 -1.9604519235236728 L 2.441847756565628 -0.25 L 1.4228879863508939 -0.25 L 2.282747923823661 -2.2294799578527273 Z" fill="#fdcb68" transform="matrix(1,0,0,1,0,0)" fill-rule="evenodd"></path></g><g clip-path="url(#SvgjsClipPath564062d4bdaab-95e9-4e85-8e9e-827b0716b590)"><path d=" M 3.2587146971647574 -1.2002224638359236 L 4.277674467379492 -1.2002224638359236 L 3.8649931860115734 -0.25 L 2.846033415796839 -0.25 L 3.2587146971647574 -1.2002224638359236 Z" fill="#fdcb68" transform="matrix(1,0,0,1,0,0)" fill-rule="evenodd"></path></g></g><g><path d=" M 0.4665 2.220446049250313e-16 L 0.4665 0.7575000000000003 Q 0.4665 0.7935000000000003 0.46425 0.8362500000000003 Q 0.462 0.8790000000000002 0.447 0.9157500000000003 Q 0.432 0.9525000000000002 0.40125 0.9772500000000003 Q 0.3705 1.0020000000000002 0.3135 1.0020000000000002 Q 0.264 1.0020000000000002 0.23175 0.9840000000000002 Q 0.1995 0.9660000000000003 0.18075 0.9390000000000003 Q 0.162 0.9120000000000003 0.15375 0.8812500000000003 Q 0.1455 0.8505000000000003 0.1455 0.8265000000000002 L 0.015 0.8265000000000002 Q 0.018000000000000002 0.9420000000000003 0.09 1.0050000000000003 Q 0.162 1.0680000000000003 0.306 1.0680000000000003 Q 0.40950000000000003 1.0680000000000003 0.46950000000000003 1.0372500000000002 Q 0.5295 1.0065000000000002 0.55875 0.9592500000000003 Q 0.588 0.9120000000000003 0.5955 0.8565000000000003 Q 0.603 0.8010000000000003 0.603 0.7530000000000003 L 0.603 2.220446049250313e-16 L 0.4665 2.220446049250313e-16 M 0.9614589843749999 2.220446049250313e-16 L 0.9614589843749999 1.0500000000000003 L 1.097958984375 1.0500000000000003 L 1.097958984375 0.5865000000000002 L 1.163958984375 0.5865000000000002 Q 1.205958984375 0.5865000000000002 1.233708984375 0.5940000000000003 Q 1.261458984375 0.6015000000000003 1.283958984375 0.6195000000000003 Q 1.3064589843749999 0.6375000000000002 1.325958984375 0.6660000000000003 Q 1.345458984375 0.6945000000000003 1.372458984375 0.7365000000000003 L 1.490958984375 0.9120000000000003 Q 1.513458984375 0.9465000000000002 1.535208984375 0.9750000000000003 Q 1.556958984375 1.0035000000000003 1.582458984375 1.0237500000000002 Q 1.607958984375 1.0440000000000003 1.640208984375 1.0560000000000003 Q 1.672458984375 1.0680000000000003 1.7174589843749999 1.0680000000000003 Q 1.7504589843749998 1.0680000000000003 1.771458984375 1.0650000000000002 Q 1.792458984375 1.0620000000000003 1.813458984375 1.0500000000000003 L 1.813458984375 0.9945000000000003 Q 1.805958984375 0.9960000000000002 1.798458984375 0.9967500000000002 Q 1.790958984375 0.9975000000000003 1.783458984375 0.9975000000000003 Q 1.7519589843749999 0.9975000000000003 1.7279589843749998 0.9885000000000003 Q 1.7039589843749998 0.9795000000000003 1.682958984375 0.9622500000000003 Q 1.661958984375 0.9450000000000003 1.642458984375 0.9202500000000002 Q 1.6229589843749999 0.8955000000000003 1.601958984375 0.8640000000000003 Q 1.538958984375 0.7725000000000002 1.5044589843749998 0.7177500000000003 Q 1.4699589843749998 0.6630000000000003 1.449708984375 0.6330000000000002 Q 1.429458984375 0.6030000000000002 1.416708984375 0.5895000000000002 Q 1.403958984375 0.5760000000000003 1.385958984375 0.5670000000000003 L 1.370958984375 0.5595000000000003 L 1.370958984375 0.5535000000000003 Q 1.442958984375 0.5490000000000003 1.4947089843749999 0.5220000000000002 Q 1.546458984375 0.4950000000000002 1.579458984375 0.45450000000000024 Q 1.612458984375 0.41400000000000026 1.627458984375 0.36675000000000024 Q 1.642458984375 0.31950000000000023 1.642458984375 0.2745000000000003 Q 1.642458984375 0.2340000000000002 1.626708984375 0.18600000000000028 Q 1.6109589843749998 0.13800000000000023 1.572708984375 0.09675000000000022 Q 1.534458984375 0.055500000000000216 1.468458984375 0.027750000000000163 Q 1.402458984375 2.220446049250313e-16 1.301958984375 2.220446049250313e-16 L 0.9614589843749999 2.220446049250313e-16 M 1.097958984375 0.06600000000000028 L 1.249458984375 0.06600000000000028 Q 1.3064589843749999 0.06600000000000028 1.3522089843749998 0.08250000000000024 Q 1.397958984375 0.0990000000000002 1.430958984375 0.1282500000000002 Q 1.463958984375 0.1575000000000002 1.4812089843749998 0.1980000000000003 Q 1.498458984375 0.23850000000000027 1.498458984375 0.2865000000000002 Q 1.498458984375 0.3270000000000003 1.4827089843749999 0.3682500000000003 Q 1.466958984375 0.4095000000000003 1.4354589843749999 0.44325000000000025 Q 1.403958984375 0.4770000000000002 1.358208984375 0.4980000000000002 Q 1.312458984375 0.5190000000000002 1.252458984375 0.5190000000000002 L 1.097958984375 0.5190000000000002 L 1.097958984375 0.06600000000000028 M 1.8119890136718748 2.220446049250313e-16 L 2.251489013671875 1.0500000000000003 L 2.341489013671875 1.0500000000000003 L 2.7674890136718746 2.220446049250313e-16 L 2.6894890136718748 2.220446049250313e-16 L 2.339989013671875 0.8640000000000003 L 2.333989013671875 0.8640000000000003 L 1.973989013671875 2.220446049250313e-16 L 1.8119890136718748 2.220446049250313e-16 M 3.5294846191406246 1.0500000000000003 L 3.5294846191406246 2.220446049250313e-16 L 3.874484619140625 2.220446049250313e-16 Q 3.9989846191406246 2.220446049250313e-16 4.102484619140625 0.039750000000000174 Q 4.205984619140625 0.07950000000000024 4.280234619140625 0.14925000000000022 Q 4.354484619140624 0.2190000000000002 4.395734619140625 0.3150000000000003 Q 4.436984619140625 0.41100000000000025 4.436984619140625 0.5220000000000002 Q 4.436984619140625 0.6375000000000002 4.394234619140625 0.7342500000000003 Q 4.351484619140625 0.8310000000000003 4.277234619140625 0.9015000000000003 Q 4.202984619140625 0.9720000000000003 4.103984619140625 1.0110000000000003 Q 4.004984619140624 1.0500000000000003 3.8924846191406246 1.0500000000000003 L 3.5294846191406246 1.0500000000000003 M 3.665984619140625 0.9840000000000002 L 3.830984619140625 0.9840000000000002 Q 3.9539846191406247 0.9840000000000002 4.040234619140625 0.9427500000000003 Q 4.126484619140625 0.9015000000000003 4.181984619140625 0.8355000000000002 Q 4.237484619140625 0.7695000000000003 4.262984619140624 0.6877500000000003 Q 4.2884846191406245 0.6060000000000003 4.2884846191406245 0.5250000000000002 Q 4.2884846191406245 0.4350000000000003 4.258484619140625 0.35175000000000023 Q 4.228484619140625 0.2685000000000003 4.1707346191406245 0.2047500000000002 Q 4.112984619140625 0.14100000000000024 4.027484619140624 0.10350000000000026 Q 3.9419846191406247 0.06600000000000028 3.830984619140625 0.06600000000000028 L 3.665984619140625 0.06600000000000028 L 3.665984619140625 0.9840000000000002 M 5.244006591796875 0.7410000000000003 L 5.3880065917968745 1.0500000000000003 L 5.533506591796875 1.0500000000000003 L 5.044506591796875 2.220446049250313e-16 L 4.969506591796875 2.220446049250313e-16 L 4.525506591796875 1.0500000000000003 L 4.594506591796875 1.0500000000000003 L 4.726506591796875 0.7410000000000003 L 5.244006591796875 0.7410000000000003 M 5.212506591796875 0.6735000000000002 L 4.7550065917968745 0.6735000000000002 L 4.971006591796875 0.16800000000000026 L 4.977006591796875 0.16800000000000026 L 5.212506591796875 0.6735000000000002 M 5.965505859375 1.0500000000000003 L 5.965505859375 0.08250000000000024 L 6.367505859375 0.08250000000000024 L 6.367505859375 2.220446049250313e-16 L 5.427005859375 2.220446049250313e-16 L 5.427005859375 0.08250000000000024 L 5.829005859375 0.08250000000000024 L 5.829005859375 1.0500000000000003 L 5.965505859375 1.0500000000000003 M 6.97950146484375 0.7410000000000003 L 7.123501464843749 1.0500000000000003 L 7.2690014648437495 1.0500000000000003 L 6.78000146484375 2.220446049250313e-16 L 6.7050014648437495 2.220446049250313e-16 L 6.2610014648437495 1.0500000000000003 L 6.3300014648437495 1.0500000000000003 L 6.46200146484375 0.7410000000000003 L 6.97950146484375 0.7410000000000003 M 6.94800146484375 0.6735000000000002 L 6.490501464843749 0.6735000000000002 L 6.7065014648437495 0.16800000000000026 L 6.71250146484375 0.16800000000000026 L 6.94800146484375 0.6735000000000002" fill="#ffffff" fill-rule="nonzero"></path></g><g><path d=" M 0.30225 1.4164124999999999 L 0.30225 1.8131625 Q 0.30225 1.8731624999999998 0.2655 1.9095374999999999 Q 0.22875 1.9459125 0.16725 1.9459125 Q 0.10350000000000001 1.9459125 0.065625 1.9072875 Q 0.02775 1.8686625 0.02775 1.8026624999999998 L 0.081 1.8026624999999998 Q 0.08175 1.8454125 0.10237500000000001 1.8724125 Q 0.123 1.8994125 0.16725 1.8994125 Q 0.20925 1.8994125 0.2295 1.8746625 Q 0.24975 1.8499124999999998 0.24975 1.8131625 L 0.24975 1.4164124999999999 L 0.30225 1.4164124999999999 M 0.486392578125 1.4164124999999999 L 0.486392578125 1.7464125 Q 0.486392578125 1.8244125 0.523517578125 1.8619124999999999 Q 0.560642578125 1.8994125 0.625142578125 1.8994125 Q 0.689642578125 1.8994125 0.726017578125 1.8622874999999999 Q 0.7623925781249999 1.8251625 0.7623925781249999 1.7464125 L 0.7623925781249999 1.4164124999999999 L 0.814892578125 1.4164124999999999 L 0.814892578125 1.7456625 Q 0.814892578125 1.8454125 0.762017578125 1.8956625 Q 0.709142578125 1.9459125 0.6243925781249999 1.9459125 Q 0.5396425781249999 1.9459125 0.48676757812499993 1.8956625 Q 0.433892578125 1.8454125 0.433892578125 1.7456625 L 0.433892578125 1.4164124999999999 L 0.486392578125 1.4164124999999999 M 1.0016506347656249 1.9279125 Q 0.9622756347656249 1.9099125 0.939775634765625 1.8776625 Q 0.9172756347656249 1.8454125 0.915775634765625 1.8056625 L 0.971275634765625 1.8056625 Q 0.975025634765625 1.8439125 1.005025634765625 1.8727875 Q 1.035025634765625 1.9016625 1.092775634765625 1.9016625 Q 1.1460256347656248 1.9016625 1.1771506347656249 1.8742874999999999 Q 1.208275634765625 1.8469125 1.208275634765625 1.8049125 Q 1.208275634765625 1.7711625 1.191025634765625 1.7505374999999999 Q 1.173775634765625 1.7299125 1.1482756347656249 1.7197875 Q 1.1227756347656248 1.7096624999999999 1.0777756347656249 1.6976624999999999 Q 1.0252756347656249 1.6834125 0.9945256347656249 1.6699125 Q 0.9637756347656249 1.6564125 0.942025634765625 1.6279124999999999 Q 0.9202756347656249 1.5994125 0.9202756347656249 1.5506625 Q 0.9202756347656249 1.5101624999999999 0.9412756347656249 1.4782875 Q 0.9622756347656249 1.4464124999999999 1.0005256347656248 1.4284124999999999 Q 1.038775634765625 1.4104125 1.0882756347656248 1.4104125 Q 1.161025634765625 1.4104125 1.2056506347656248 1.4460374999999999 Q 1.250275634765625 1.4816624999999999 1.257025634765625 1.5379125 L 1.2000256347656248 1.5379125 Q 1.1947756347656249 1.5056625 1.1647756347656248 1.4805375 Q 1.1347756347656248 1.4554125 1.0837756347656249 1.4554125 Q 1.0365256347656249 1.4554125 1.005025634765625 1.4805375 Q 0.9735256347656249 1.5056625 0.9735256347656249 1.5491625 Q 0.9735256347656249 1.5821625 0.9907756347656249 1.6024125 Q 1.008025634765625 1.6226625 1.033900634765625 1.6331625 Q 1.0597756347656249 1.6436625 1.104025634765625 1.6556625 Q 1.155025634765625 1.6699125 1.186525634765625 1.6837875 Q 1.2180256347656249 1.6976624999999999 1.2397756347656248 1.7261625 Q 1.261525634765625 1.7546625 1.261525634765625 1.8026624999999998 Q 1.261525634765625 1.8394125 1.2420256347656249 1.8724125 Q 1.222525634765625 1.9054125 1.184275634765625 1.9256625 Q 1.1460256347656248 1.9459125 1.092775634765625 1.9459125 Q 1.0410256347656248 1.9459125 1.0016506347656249 1.9279125 M 1.671416748046875 1.4164124999999999 L 1.671416748046875 1.4599125 L 1.5259167480468747 1.4599125 L 1.5259167480468747 1.9406625 L 1.4734167480468747 1.9406625 L 1.4734167480468747 1.4599125 L 1.3271667480468747 1.4599125 L 1.3271667480468747 1.4164124999999999 L 1.671416748046875 1.4164124999999999 M 2.2429215087890624 1.9406625 L 2.1131715087890623 1.7216624999999999 L 2.0164215087890622 1.7216624999999999 L 2.0164215087890622 1.9406625 L 1.9639215087890625 1.9406625 L 1.9639215087890625 1.4164124999999999 L 2.121421508789062 1.4164124999999999 Q 2.2091715087890624 1.4164124999999999 2.2545465087890624 1.4584125 Q 2.2999215087890623 1.5004125 2.2999215087890623 1.5686624999999998 Q 2.2999215087890623 1.6256625 2.2672965087890624 1.6657875 Q 2.2346715087890625 1.7059125 2.1709215087890623 1.7179125 L 2.3059215087890625 1.9406625 L 2.2429215087890624 1.9406625 M 2.0164215087890622 1.6789125 L 2.1221715087890622 1.6789125 Q 2.1836715087890624 1.6789125 2.214796508789062 1.6489125 Q 2.2459215087890625 1.6189125 2.2459215087890625 1.5686624999999998 Q 2.2459215087890625 1.5169124999999999 2.2159215087890622 1.4887875 Q 2.1859215087890624 1.4606625 2.121421508789062 1.4606625 L 2.0164215087890622 1.4606625 L 2.0164215087890622 1.6789125 M 2.45852783203125 1.4164124999999999 L 2.45852783203125 1.9406625 L 2.40602783203125 1.9406625 L 2.40602783203125 1.4164124999999999 L 2.45852783203125 1.4164124999999999 M 2.99215576171875 1.5694124999999999 Q 2.9696557617187502 1.5176625 2.92353076171875 1.4880375 Q 2.87740576171875 1.4584125 2.81515576171875 1.4584125 Q 2.75665576171875 1.4584125 2.71015576171875 1.4854125 Q 2.66365576171875 1.5124125 2.63665576171875 1.5622875 Q 2.60965576171875 1.6121625 2.60965576171875 1.6781625 Q 2.60965576171875 1.7441624999999998 2.63665576171875 1.7944125 Q 2.66365576171875 1.8446624999999999 2.71015576171875 1.8716625 Q 2.75665576171875 1.8986625 2.81515576171875 1.8986625 Q 2.86990576171875 1.8986625 2.91378076171875 1.8750375 Q 2.95765576171875 1.8514125 2.98428076171875 1.8075375 Q 3.01090576171875 1.7636625 3.01465576171875 1.7051625 L 2.7941557617187502 1.7051625 L 2.7941557617187502 1.6624124999999998 L 3.07015576171875 1.6624124999999998 L 3.07015576171875 1.7006625 Q 3.06640576171875 1.7696625 3.03265576171875 1.8255375 Q 2.99890576171875 1.8814125 2.94228076171875 1.9136625 Q 2.88565576171875 1.9459125 2.81515576171875 1.9459125 Q 2.74240576171875 1.9459125 2.68315576171875 1.9117875 Q 2.62390576171875 1.8776625 2.58978076171875 1.8165375 Q 2.55565576171875 1.7554125 2.55565576171875 1.6781625 Q 2.55565576171875 1.6009125 2.58978076171875 1.5397875 Q 2.62390576171875 1.4786625 2.68315576171875 1.4445375 Q 2.74240576171875 1.4104125 2.81515576171875 1.4104125 Q 2.8991557617187502 1.4104125 2.96215576171875 1.4524124999999999 Q 3.02515576171875 1.4944125 3.0536557617187503 1.5694124999999999 L 2.99215576171875 1.5694124999999999 M 3.557267578125 1.4164124999999999 L 3.557267578125 1.9406625 L 3.5047675781249996 1.9406625 L 3.5047675781249996 1.6954125 L 3.2205175781249995 1.6954125 L 3.2205175781249995 1.9406625 L 3.1680175781249997 1.9406625 L 3.1680175781249997 1.4164124999999999 L 3.2205175781249995 1.4164124999999999 L 3.2205175781249995 1.6519125 L 3.5047675781249996 1.6519125 L 3.5047675781249996 1.4164124999999999 L 3.557267578125 1.4164124999999999 M 3.9859046630859374 1.4164124999999999 L 3.9859046630859374 1.4599125 L 3.840404663085937 1.4599125 L 3.840404663085937 1.9406625 L 3.7879046630859374 1.9406625 L 3.7879046630859374 1.4599125 L 3.641654663085937 1.4599125 L 3.641654663085937 1.4164124999999999 L 3.9859046630859374 1.4164124999999999 M 4.693909423828125 1.4164124999999999 L 4.495159423828125 1.9406625 L 4.435159423828125 1.9406625 L 4.236409423828125 1.4164124999999999 L 4.293409423828125 1.4164124999999999 L 4.4651594238281245 1.8836625 L 4.638409423828125 1.4164124999999999 L 4.693909423828125 1.4164124999999999 M 4.827031860351562 1.4591625 L 4.827031860351562 1.6549125 L 5.025781860351563 1.6549125 L 5.025781860351563 1.6984124999999999 L 4.827031860351562 1.6984124999999999 L 4.827031860351562 1.8971624999999999 L 5.048281860351563 1.8971624999999999 L 5.048281860351563 1.9406625 L 4.774531860351562 1.9406625 L 4.774531860351562 1.4156624999999998 L 5.048281860351563 1.4156624999999998 L 5.048281860351563 1.4591625 L 4.827031860351562 1.4591625 M 5.4326499023437504 1.9406625 L 5.30289990234375 1.7216624999999999 L 5.20614990234375 1.7216624999999999 L 5.20614990234375 1.9406625 L 5.15364990234375 1.9406625 L 5.15364990234375 1.4164124999999999 L 5.31114990234375 1.4164124999999999 Q 5.39889990234375 1.4164124999999999 5.44427490234375 1.4584125 Q 5.48964990234375 1.5004125 5.48964990234375 1.5686624999999998 Q 5.48964990234375 1.6256625 5.4570249023437505 1.6657875 Q 5.42439990234375 1.7059125 5.36064990234375 1.7179125 L 5.49564990234375 1.9406625 L 5.4326499023437504 1.9406625 M 5.20614990234375 1.6789125 L 5.31189990234375 1.6789125 Q 5.37339990234375 1.6789125 5.40452490234375 1.6489125 Q 5.43564990234375 1.6189125 5.43564990234375 1.5686624999999998 Q 5.43564990234375 1.5169124999999999 5.40564990234375 1.4887875 Q 5.37564990234375 1.4606625 5.31114990234375 1.4606625 L 5.20614990234375 1.4606625 L 5.20614990234375 1.6789125 M 5.663631225585938 1.9279125 Q 5.624256225585937 1.9099125 5.601756225585937 1.8776625 Q 5.5792562255859375 1.8454125 5.577756225585937 1.8056625 L 5.633256225585938 1.8056625 Q 5.637006225585938 1.8439125 5.667006225585937 1.8727875 Q 5.6970062255859375 1.9016625 5.754756225585938 1.9016625 Q 5.808006225585937 1.9016625 5.839131225585938 1.8742874999999999 Q 5.870256225585938 1.8469125 5.870256225585938 1.8049125 Q 5.870256225585938 1.7711625 5.853006225585938 1.7505374999999999 Q 5.835756225585937 1.7299125 5.810256225585937 1.7197875 Q 5.784756225585937 1.7096624999999999 5.739756225585937 1.6976624999999999 Q 5.687256225585938 1.6834125 5.656506225585938 1.6699125 Q 5.6257562255859375 1.6564125 5.6040062255859375 1.6279124999999999 Q 5.582256225585938 1.5994125 5.582256225585938 1.5506625 Q 5.582256225585938 1.5101624999999999 5.6032562255859375 1.4782875 Q 5.624256225585937 1.4464124999999999 5.662506225585938 1.4284124999999999 Q 5.700756225585938 1.4104125 5.750256225585938 1.4104125 Q 5.823006225585938 1.4104125 5.867631225585938 1.4460374999999999 Q 5.912256225585938 1.4816624999999999 5.919006225585938 1.5379125 L 5.8620062255859375 1.5379125 Q 5.856756225585937 1.5056625 5.826756225585938 1.4805375 Q 5.796756225585938 1.4554125 5.745756225585938 1.4554125 Q 5.698506225585938 1.4554125 5.667006225585937 1.4805375 Q 5.635506225585938 1.5056625 5.635506225585938 1.5491625 Q 5.635506225585938 1.5821625 5.652756225585938 1.6024125 Q 5.670006225585937 1.6226625 5.6958812255859375 1.6331625 Q 5.7217562255859375 1.6436625 5.7660062255859375 1.6556625 Q 5.817006225585938 1.6699125 5.848506225585938 1.6837875 Q 5.880006225585937 1.6976624999999999 5.901756225585937 1.7261625 Q 5.923506225585937 1.7546625 5.923506225585937 1.8026624999999998 Q 5.923506225585937 1.8394125 5.904006225585937 1.8724125 Q 5.8845062255859375 1.9054125 5.846256225585938 1.9256625 Q 5.808006225585937 1.9459125 5.754756225585938 1.9459125 Q 5.703006225585938 1.9459125 5.663631225585938 1.9279125 M 6.330397338867188 1.8161625 L 6.091897338867188 1.8161625 L 6.046147338867188 1.9406625 L 5.990647338867188 1.9406625 L 6.181897338867188 1.4231625 L 6.241147338867187 1.4231625 L 6.4316473388671875 1.9406625 L 6.376147338867188 1.9406625 L 6.330397338867188 1.8161625 M 6.3146473388671875 1.7726625 L 6.211147338867188 1.4891625 L 6.107647338867188 1.7726625 L 6.3146473388671875 1.7726625 M 6.824255493164062 1.4164124999999999 L 6.824255493164062 1.4599125 L 6.678755493164063 1.4599125 L 6.678755493164063 1.9406625 L 6.626255493164063 1.9406625 L 6.626255493164063 1.4599125 L 6.480005493164063 1.4599125 L 6.480005493164063 1.4164124999999999 L 6.824255493164062 1.4164124999999999 M 6.961895141601563 1.4164124999999999 L 6.961895141601563 1.9406625 L 6.909395141601562 1.9406625 L 6.909395141601562 1.4164124999999999 L 6.961895141601563 1.4164124999999999 M 7.135523071289063 1.8979125 L 7.323773071289063 1.8979125 L 7.323773071289063 1.9406625 L 7.0830230712890625 1.9406625 L 7.0830230712890625 1.4164124999999999 L 7.135523071289063 1.4164124999999999 L 7.135523071289063 1.8979125 M 7.453163452148438 1.4591625 L 7.453163452148438 1.6549125 L 7.651913452148438 1.6549125 L 7.651913452148438 1.6984124999999999 L 7.453163452148438 1.6984124999999999 L 7.453163452148438 1.8971624999999999 L 7.674413452148438 1.8971624999999999 L 7.674413452148438 1.9406625 L 7.400663452148438 1.9406625 L 7.400663452148438 1.4156624999999998 L 7.674413452148438 1.4156624999999998 L 7.674413452148438 1.4591625 L 7.453163452148438 1.4591625 M 8.291646606445314 1.4479125 Q 8.353896606445312 1.4794125 8.386896606445314 1.5386625 Q 8.419896606445313 1.5979125 8.419896606445313 1.6796625 Q 8.419896606445313 1.7606625 8.386896606445314 1.8195375 Q 8.353896606445312 1.8784125 8.291646606445314 1.9095374999999999 Q 8.229396606445313 1.9406625 8.142396606445313 1.9406625 L 7.987146606445313 1.9406625 L 7.987146606445313 1.4164124999999999 L 8.142396606445313 1.4164124999999999 Q 8.229396606445313 1.4164124999999999 8.291646606445314 1.4479125 M 8.309271606445312 1.8397875 Q 8.366646606445313 1.7824125 8.366646606445313 1.6796625 Q 8.366646606445313 1.5761625 8.309271606445312 1.5180375 Q 8.251896606445314 1.4599125 8.142396606445313 1.4599125 L 8.039646606445313 1.4599125 L 8.039646606445313 1.8971624999999999 L 8.142396606445313 1.8971624999999999 Q 8.251896606445314 1.8971624999999999 8.309271606445312 1.8397875 M 8.822266845703124 1.8161625 L 8.583766845703124 1.8161625 L 8.538016845703124 1.9406625 L 8.482516845703124 1.9406625 L 8.673766845703124 1.4231625 L 8.733016845703125 1.4231625 L 8.923516845703125 1.9406625 L 8.868016845703124 1.9406625 L 8.822266845703124 1.8161625 M 8.806516845703126 1.7726625 L 8.703016845703125 1.4891625 L 8.599516845703125 1.7726625 L 8.806516845703126 1.7726625 M 9.316125 1.4164124999999999 L 9.316125 1.4599125 L 9.170625 1.4599125 L 9.170625 1.9406625 L 9.118125 1.9406625 L 9.118125 1.4599125 L 8.971875 1.4599125 L 8.971875 1.4164124999999999 L 9.316125 1.4164124999999999 M 9.7050146484375 1.8161625 L 9.4665146484375 1.8161625 L 9.4207646484375 1.9406625 L 9.365264648437499 1.9406625 L 9.5565146484375 1.4231625 L 9.6157646484375 1.4231625 L 9.8062646484375 1.9406625 L 9.7507646484375 1.9406625 L 9.7050146484375 1.8161625 M 9.6892646484375 1.7726625 L 9.5857646484375 1.4891625 L 9.4822646484375 1.7726625 L 9.6892646484375 1.7726625 M 10.167362915039062 1.9279125 Q 10.127987915039062 1.9099125 10.105487915039063 1.8776625 Q 10.082987915039062 1.8454125 10.081487915039062 1.8056625 L 10.136987915039063 1.8056625 Q 10.140737915039063 1.8439125 10.170737915039062 1.8727875 Q 10.200737915039063 1.9016625 10.258487915039062 1.9016625 Q 10.311737915039062 1.9016625 10.342862915039063 1.8742874999999999 Q 10.373987915039063 1.8469125 10.373987915039063 1.8049125 Q 10.373987915039063 1.7711625 10.356737915039062 1.7505374999999999 Q 10.339487915039063 1.7299125 10.313987915039062 1.7197875 Q 10.288487915039063 1.7096624999999999 10.243487915039063 1.6976624999999999 Q 10.190987915039063 1.6834125 10.160237915039062 1.6699125 Q 10.129487915039062 1.6564125 10.107737915039063 1.6279124999999999 Q 10.085987915039063 1.5994125 10.085987915039063 1.5506625 Q 10.085987915039063 1.5101624999999999 10.106987915039063 1.4782875 Q 10.127987915039062 1.4464124999999999 10.166237915039062 1.4284124999999999 Q 10.204487915039062 1.4104125 10.253987915039062 1.4104125 Q 10.326737915039063 1.4104125 10.371362915039063 1.4460374999999999 Q 10.415987915039063 1.4816624999999999 10.422737915039063 1.5379125 L 10.365737915039062 1.5379125 Q 10.360487915039062 1.5056625 10.330487915039063 1.4805375 Q 10.300487915039062 1.4554125 10.249487915039063 1.4554125 Q 10.202237915039063 1.4554125 10.170737915039062 1.4805375 Q 10.139237915039063 1.5056625 10.139237915039063 1.5491625 Q 10.139237915039063 1.5821625 10.156487915039063 1.6024125 Q 10.173737915039062 1.6226625 10.199612915039063 1.6331625 Q 10.225487915039063 1.6436625 10.269737915039062 1.6556625 Q 10.320737915039063 1.6699125 10.352237915039062 1.6837875 Q 10.383737915039063 1.6976624999999999 10.405487915039062 1.7261625 Q 10.427237915039063 1.7546625 10.427237915039063 1.8026624999999998 Q 10.427237915039063 1.8394125 10.407737915039062 1.8724125 Q 10.388237915039063 1.9054125 10.349987915039062 1.9256625 Q 10.311737915039062 1.9459125 10.258487915039062 1.9459125 Q 10.206737915039062 1.9459125 10.167362915039062 1.9279125 M 10.633879028320314 1.9117875 Q 10.574629028320313 1.8776625 10.540504028320314 1.8165375 Q 10.506379028320312 1.7554125 10.506379028320312 1.6781625 Q 10.506379028320312 1.6009125 10.540504028320314 1.5397875 Q 10.574629028320313 1.4786625 10.633879028320314 1.4445375 Q 10.693129028320312 1.4104125 10.765879028320313 1.4104125 Q 10.839379028320312 1.4104125 10.898629028320313 1.4445375 Q 10.957879028320313 1.4786625 10.991629028320313 1.5397875 Q 11.025379028320312 1.6009125 11.025379028320312 1.6781625 Q 11.025379028320312 1.7554125 10.991629028320313 1.8165375 Q 10.957879028320313 1.8776625 10.898629028320313 1.9117875 Q 10.839379028320312 1.9459125 10.765879028320313 1.9459125 Q 10.693129028320312 1.9459125 10.633879028320314 1.9117875 M 10.870879028320312 1.8731624999999998 Q 10.917379028320312 1.8461625 10.944379028320313 1.7955375 Q 10.971379028320312 1.7449124999999999 10.971379028320312 1.6781625 Q 10.971379028320312 1.6114125 10.944379028320313 1.5611625 Q 10.917379028320312 1.5109124999999999 10.870879028320312 1.4839125 Q 10.824379028320312 1.4569125 10.765879028320313 1.4569125 Q 10.707379028320313 1.4569125 10.660879028320313 1.4839125 Q 10.614379028320313 1.5109124999999999 10.587379028320314 1.5611625 Q 10.560379028320312 1.6114125 10.560379028320312 1.6781625 Q 10.560379028320312 1.7449124999999999 10.587379028320314 1.7955375 Q 10.614379028320313 1.8461625 10.660879028320313 1.8731624999999998 Q 10.707379028320313 1.9001625 10.765879028320313 1.9001625 Q 10.824379028320312 1.9001625 10.870879028320312 1.8731624999999998 M 11.175772705078126 1.8979125 L 11.364022705078126 1.8979125 L 11.364022705078126 1.9406625 L 11.123272705078126 1.9406625 L 11.123272705078126 1.4164124999999999 L 11.175772705078126 1.4164124999999999 L 11.175772705078126 1.8979125 M 11.491163085937501 1.4164124999999999 L 11.491163085937501 1.7464125 Q 11.491163085937501 1.8244125 11.5282880859375 1.8619124999999999 Q 11.5654130859375 1.8994125 11.6299130859375 1.8994125 Q 11.6944130859375 1.8994125 11.730788085937501 1.8622874999999999 Q 11.7671630859375 1.8251625 11.7671630859375 1.7464125 L 11.7671630859375 1.4164124999999999 L 11.819663085937501 1.4164124999999999 L 11.819663085937501 1.7456625 Q 11.819663085937501 1.8454125 11.7667880859375 1.8956625 Q 11.7139130859375 1.9459125 11.6291630859375 1.9459125 Q 11.544413085937501 1.9459125 11.491538085937501 1.8956625 Q 11.4386630859375 1.8454125 11.4386630859375 1.7456625 L 11.4386630859375 1.4164124999999999 L 11.491163085937501 1.4164124999999999 M 12.245296142578125 1.4164124999999999 L 12.245296142578125 1.4599125 L 12.099796142578125 1.4599125 L 12.099796142578125 1.9406625 L 12.047296142578125 1.9406625 L 12.047296142578125 1.4599125 L 11.901046142578126 1.4599125 L 11.901046142578126 1.4164124999999999 L 12.245296142578125 1.4164124999999999 M 12.382935791015626 1.4164124999999999 L 12.382935791015626 1.9406625 L 12.330435791015626 1.9406625 L 12.330435791015626 1.4164124999999999 L 12.382935791015626 1.4164124999999999 M 12.607563720703126 1.9117875 Q 12.548313720703126 1.8776625 12.514188720703126 1.8165375 Q 12.480063720703125 1.7554125 12.480063720703125 1.6781625 Q 12.480063720703125 1.6009125 12.514188720703126 1.5397875 Q 12.548313720703126 1.4786625 12.607563720703126 1.4445375 Q 12.666813720703125 1.4104125 12.739563720703126 1.4104125 Q 12.813063720703125 1.4104125 12.872313720703126 1.4445375 Q 12.931563720703126 1.4786625 12.965313720703126 1.5397875 Q 12.999063720703125 1.6009125 12.999063720703125 1.6781625 Q 12.999063720703125 1.7554125 12.965313720703126 1.8165375 Q 12.931563720703126 1.8776625 12.872313720703126 1.9117875 Q 12.813063720703125 1.9459125 12.739563720703126 1.9459125 Q 12.666813720703125 1.9459125 12.607563720703126 1.9117875 M 12.844563720703125 1.8731624999999998 Q 12.891063720703125 1.8461625 12.918063720703126 1.7955375 Q 12.945063720703125 1.7449124999999999 12.945063720703125 1.6781625 Q 12.945063720703125 1.6114125 12.918063720703126 1.5611625 Q 12.891063720703125 1.5109124999999999 12.844563720703125 1.4839125 Q 12.798063720703125 1.4569125 12.739563720703126 1.4569125 Q 12.681063720703126 1.4569125 12.634563720703126 1.4839125 Q 12.588063720703126 1.5109124999999999 12.561063720703126 1.5611625 Q 12.534063720703125 1.6114125 12.534063720703125 1.6781625 Q 12.534063720703125 1.7449124999999999 12.561063720703126 1.7955375 Q 12.588063720703126 1.8461625 12.634563720703126 1.8731624999999998 Q 12.681063720703126 1.9001625 12.739563720703126 1.9001625 Q 12.798063720703125 1.9001625 12.844563720703125 1.8731624999999998 M 13.492207397460938 1.9406625 L 13.439707397460937 1.9406625 L 13.149457397460939 1.4996625 L 13.149457397460939 1.9406625 L 13.096957397460939 1.9406625 L 13.096957397460939 1.4164124999999999 L 13.149457397460939 1.4164124999999999 L 13.439707397460937 1.8566624999999999 L 13.439707397460937 1.4164124999999999 L 13.492207397460938 1.4164124999999999 L 13.492207397460938 1.9406625 M 13.68118798828125 1.9279125 Q 13.64181298828125 1.9099125 13.619312988281251 1.8776625 Q 13.59681298828125 1.8454125 13.59531298828125 1.8056625 L 13.65081298828125 1.8056625 Q 13.654562988281251 1.8439125 13.68456298828125 1.8727875 Q 13.714562988281251 1.9016625 13.77231298828125 1.9016625 Q 13.82556298828125 1.9016625 13.856687988281251 1.8742874999999999 Q 13.88781298828125 1.8469125 13.88781298828125 1.8049125 Q 13.88781298828125 1.7711625 13.87056298828125 1.7505374999999999 Q 13.853312988281251 1.7299125 13.82781298828125 1.7197875 Q 13.802312988281251 1.7096624999999999 13.757312988281251 1.6976624999999999 Q 13.704812988281251 1.6834125 13.67406298828125 1.6699125 Q 13.64331298828125 1.6564125 13.621562988281251 1.6279124999999999 Q 13.59981298828125 1.5994125 13.59981298828125 1.5506625 Q 13.59981298828125 1.5101624999999999 13.620812988281251 1.4782875 Q 13.64181298828125 1.4464124999999999 13.68006298828125 1.4284124999999999 Q 13.71831298828125 1.4104125 13.76781298828125 1.4104125 Q 13.84056298828125 1.4104125 13.88518798828125 1.4460374999999999 Q 13.92981298828125 1.4816624999999999 13.936562988281251 1.5379125 L 13.87956298828125 1.5379125 Q 13.87431298828125 1.5056625 13.844312988281251 1.4805375 Q 13.81431298828125 1.4554125 13.763312988281251 1.4554125 Q 13.716062988281251 1.4554125 13.68456298828125 1.4805375 Q 13.65306298828125 1.5056625 13.65306298828125 1.5491625 Q 13.65306298828125 1.5821625 13.670312988281252 1.6024125 Q 13.68756298828125 1.6226625 13.713437988281251 1.6331625 Q 13.73931298828125 1.6436625 13.78356298828125 1.6556625 Q 13.83456298828125 1.6699125 13.86606298828125 1.6837875 Q 13.897562988281251 1.6976624999999999 13.91931298828125 1.7261625 Q 13.941062988281251 1.7546625 13.941062988281251 1.8026624999999998 Q 13.941062988281251 1.8394125 13.92156298828125 1.8724125 Q 13.902062988281251 1.9054125 13.86381298828125 1.9256625 Q 13.82556298828125 1.9459125 13.77231298828125 1.9459125 Q 13.72056298828125 1.9459125 13.68118798828125 1.9279125" fill="#ffe398" fill-rule="nonzero"></path></g></g><defs><clipPath id="SvgjsClipPath56408"><path d=" M 0 -3.2589948949645824 h 5.171774336494138 v 3.0089948949645824 h -5.171774336494138 Z"></path></clipPath><clipPath id="SvgjsClipPath564062d4bdaab-95e9-4e85-8e9e-827b0716b590"><path d=" M 0 -3.2589948949645824 L 5.171774336494138 -3.2589948949645824 L 5.171774336494138 -0.25 L 0 -0.25 Z"></path></clipPath></defs></svg>